<mxfile host="app.diagrams.net" modified="2024-06-06T20:38:58.542Z" agent="Mozilla/5.0 (Windows NT 10.0; Win64; x64) AppleWebKit/537.36 (KHTML, like Gecko) Chrome/125.0.0.0 Safari/537.36 Edg/125.0.0.0" etag="G9SLHEEG13axDU0MNywg" version="24.5.1" type="device">
  <diagram name="Strona-1" id="Km1XW9D9qIXR1fNAnSBt">
    <mxGraphModel dx="867" dy="476" grid="1" gridSize="10" guides="1" tooltips="1" connect="1" arrows="1" fold="1" page="1" pageScale="1" pageWidth="827" pageHeight="1169" math="0" shadow="0">
      <root>
        <mxCell id="0" />
        <mxCell id="1" parent="0" />
        <mxCell id="k9vIDkuSbRLhK8Y41iWG-72" value="Zamówienia" style="swimlane;fontStyle=1;align=center;verticalAlign=top;childLayout=stackLayout;horizontal=1;startSize=26;horizontalStack=0;resizeParent=1;resizeParentMax=0;resizeLast=0;collapsible=1;marginBottom=0;whiteSpace=wrap;html=1;" parent="1" vertex="1">
          <mxGeometry x="102" y="49" width="160" height="60" as="geometry" />
        </mxCell>
        <mxCell id="k9vIDkuSbRLhK8Y41iWG-73" value="- idZamowienia = 1" style="text;strokeColor=none;fillColor=none;align=left;verticalAlign=top;spacingLeft=4;spacingRight=4;overflow=hidden;rotatable=0;points=[[0,0.5],[1,0.5]];portConstraint=eastwest;whiteSpace=wrap;html=1;" parent="k9vIDkuSbRLhK8Y41iWG-72" vertex="1">
          <mxGeometry y="26" width="160" height="26" as="geometry" />
        </mxCell>
        <mxCell id="k9vIDkuSbRLhK8Y41iWG-74" value="" style="line;strokeWidth=1;fillColor=none;align=left;verticalAlign=middle;spacingTop=-1;spacingLeft=3;spacingRight=3;rotatable=0;labelPosition=right;points=[];portConstraint=eastwest;strokeColor=inherit;" parent="k9vIDkuSbRLhK8Y41iWG-72" vertex="1">
          <mxGeometry y="52" width="160" height="8" as="geometry" />
        </mxCell>
        <mxCell id="k9vIDkuSbRLhK8Y41iWG-75" value="Nabywcy" style="swimlane;fontStyle=1;align=center;verticalAlign=top;childLayout=stackLayout;horizontal=1;startSize=26;horizontalStack=0;resizeParent=1;resizeParentMax=0;resizeLast=0;collapsible=1;marginBottom=0;whiteSpace=wrap;html=1;" parent="1" vertex="1">
          <mxGeometry x="407" y="40" width="160" height="78" as="geometry" />
        </mxCell>
        <mxCell id="k9vIDkuSbRLhK8Y41iWG-76" value="- idNabywcy = 1&lt;div&gt;- adres = Olsztyn, Bałtycka 2a&lt;/div&gt;" style="text;strokeColor=none;fillColor=none;align=left;verticalAlign=top;spacingLeft=4;spacingRight=4;overflow=hidden;rotatable=0;points=[[0,0.5],[1,0.5]];portConstraint=eastwest;whiteSpace=wrap;html=1;" parent="k9vIDkuSbRLhK8Y41iWG-75" vertex="1">
          <mxGeometry y="26" width="160" height="44" as="geometry" />
        </mxCell>
        <mxCell id="k9vIDkuSbRLhK8Y41iWG-77" value="" style="line;strokeWidth=1;fillColor=none;align=left;verticalAlign=middle;spacingTop=-1;spacingLeft=3;spacingRight=3;rotatable=0;labelPosition=right;points=[];portConstraint=eastwest;strokeColor=inherit;" parent="k9vIDkuSbRLhK8Y41iWG-75" vertex="1">
          <mxGeometry y="70" width="160" height="8" as="geometry" />
        </mxCell>
        <mxCell id="k9vIDkuSbRLhK8Y41iWG-78" value="OsobaFizyczna" style="swimlane;fontStyle=1;align=center;verticalAlign=top;childLayout=stackLayout;horizontal=1;startSize=26;horizontalStack=0;resizeParent=1;resizeParentMax=0;resizeLast=0;collapsible=1;marginBottom=0;whiteSpace=wrap;html=1;" parent="1" vertex="1">
          <mxGeometry x="677" y="40" width="160" height="130" as="geometry" />
        </mxCell>
        <mxCell id="k9vIDkuSbRLhK8Y41iWG-79" value="- idOsobyFizycznej = 1&lt;div&gt;- nazwisko = Nowak&lt;/div&gt;&lt;div&gt;- imie = Jan&lt;/div&gt;" style="text;strokeColor=none;fillColor=none;align=left;verticalAlign=top;spacingLeft=4;spacingRight=4;overflow=hidden;rotatable=0;points=[[0,0.5],[1,0.5]];portConstraint=eastwest;whiteSpace=wrap;html=1;" parent="k9vIDkuSbRLhK8Y41iWG-78" vertex="1">
          <mxGeometry y="26" width="160" height="74" as="geometry" />
        </mxCell>
        <mxCell id="k9vIDkuSbRLhK8Y41iWG-80" value="" style="line;strokeWidth=1;fillColor=none;align=left;verticalAlign=middle;spacingTop=-1;spacingLeft=3;spacingRight=3;rotatable=0;labelPosition=right;points=[];portConstraint=eastwest;strokeColor=inherit;" parent="k9vIDkuSbRLhK8Y41iWG-78" vertex="1">
          <mxGeometry y="100" width="160" height="30" as="geometry" />
        </mxCell>
        <mxCell id="k9vIDkuSbRLhK8Y41iWG-81" value="Dostawy" style="swimlane;fontStyle=1;align=center;verticalAlign=top;childLayout=stackLayout;horizontal=1;startSize=26;horizontalStack=0;resizeParent=1;resizeParentMax=0;resizeLast=0;collapsible=1;marginBottom=0;whiteSpace=wrap;html=1;" parent="1" vertex="1">
          <mxGeometry x="87" y="259" width="160" height="118" as="geometry" />
        </mxCell>
        <mxCell id="k9vIDkuSbRLhK8Y41iWG-82" value="- idDostawy = 1" style="text;strokeColor=none;fillColor=none;align=left;verticalAlign=top;spacingLeft=4;spacingRight=4;overflow=hidden;rotatable=0;points=[[0,0.5],[1,0.5]];portConstraint=eastwest;whiteSpace=wrap;html=1;" parent="k9vIDkuSbRLhK8Y41iWG-81" vertex="1">
          <mxGeometry y="26" width="160" height="26" as="geometry" />
        </mxCell>
        <mxCell id="k9vIDkuSbRLhK8Y41iWG-83" value="- wiadomosc = &quot;Proszę o dostawę w godzinach 12:00 - 16:00&quot;" style="text;strokeColor=none;fillColor=none;align=left;verticalAlign=top;spacingLeft=4;spacingRight=4;overflow=hidden;rotatable=0;points=[[0,0.5],[1,0.5]];portConstraint=eastwest;whiteSpace=wrap;html=1;" parent="k9vIDkuSbRLhK8Y41iWG-81" vertex="1">
          <mxGeometry y="52" width="160" height="58" as="geometry" />
        </mxCell>
        <mxCell id="k9vIDkuSbRLhK8Y41iWG-84" value="" style="line;strokeWidth=1;fillColor=none;align=left;verticalAlign=middle;spacingTop=-1;spacingLeft=3;spacingRight=3;rotatable=0;labelPosition=right;points=[];portConstraint=eastwest;strokeColor=inherit;" parent="k9vIDkuSbRLhK8Y41iWG-81" vertex="1">
          <mxGeometry y="110" width="160" height="8" as="geometry" />
        </mxCell>
        <mxCell id="k9vIDkuSbRLhK8Y41iWG-85" value="Firmy" style="swimlane;fontStyle=1;align=center;verticalAlign=top;childLayout=stackLayout;horizontal=1;startSize=26;horizontalStack=0;resizeParent=1;resizeParentMax=0;resizeLast=0;collapsible=1;marginBottom=0;whiteSpace=wrap;html=1;" parent="1" vertex="1">
          <mxGeometry x="667" y="289" width="160" height="100" as="geometry" />
        </mxCell>
        <mxCell id="k9vIDkuSbRLhK8Y41iWG-86" value="- idFirmy = 1&lt;div&gt;- nazwa = &quot;Blix&quot;&lt;/div&gt;" style="text;strokeColor=none;fillColor=none;align=left;verticalAlign=top;spacingLeft=4;spacingRight=4;overflow=hidden;rotatable=0;points=[[0,0.5],[1,0.5]];portConstraint=eastwest;whiteSpace=wrap;html=1;" parent="k9vIDkuSbRLhK8Y41iWG-85" vertex="1">
          <mxGeometry y="26" width="160" height="44" as="geometry" />
        </mxCell>
        <mxCell id="k9vIDkuSbRLhK8Y41iWG-87" value="" style="line;strokeWidth=1;fillColor=none;align=left;verticalAlign=middle;spacingTop=-1;spacingLeft=3;spacingRight=3;rotatable=0;labelPosition=right;points=[];portConstraint=eastwest;strokeColor=inherit;" parent="k9vIDkuSbRLhK8Y41iWG-85" vertex="1">
          <mxGeometry y="70" width="160" height="30" as="geometry" />
        </mxCell>
        <mxCell id="k9vIDkuSbRLhK8Y41iWG-88" value="Pozycje" style="swimlane;fontStyle=1;align=center;verticalAlign=top;childLayout=stackLayout;horizontal=1;startSize=26;horizontalStack=0;resizeParent=1;resizeParentMax=0;resizeLast=0;collapsible=1;marginBottom=0;whiteSpace=wrap;html=1;" parent="1" vertex="1">
          <mxGeometry x="387" y="255" width="160" height="78" as="geometry" />
        </mxCell>
        <mxCell id="k9vIDkuSbRLhK8Y41iWG-89" value="- nrPozycji = 1&lt;div&gt;- ilosc = 2&lt;/div&gt;&lt;div&gt;&lt;br&gt;&lt;/div&gt;" style="text;strokeColor=none;fillColor=none;align=left;verticalAlign=top;spacingLeft=4;spacingRight=4;overflow=hidden;rotatable=0;points=[[0,0.5],[1,0.5]];portConstraint=eastwest;whiteSpace=wrap;html=1;" parent="k9vIDkuSbRLhK8Y41iWG-88" vertex="1">
          <mxGeometry y="26" width="160" height="44" as="geometry" />
        </mxCell>
        <mxCell id="k9vIDkuSbRLhK8Y41iWG-90" value="" style="line;strokeWidth=1;fillColor=none;align=left;verticalAlign=middle;spacingTop=-1;spacingLeft=3;spacingRight=3;rotatable=0;labelPosition=right;points=[];portConstraint=eastwest;strokeColor=inherit;" parent="k9vIDkuSbRLhK8Y41iWG-88" vertex="1">
          <mxGeometry y="70" width="160" height="8" as="geometry" />
        </mxCell>
        <mxCell id="k9vIDkuSbRLhK8Y41iWG-91" value="Towar" style="swimlane;fontStyle=1;align=center;verticalAlign=top;childLayout=stackLayout;horizontal=1;startSize=26;horizontalStack=0;resizeParent=1;resizeParentMax=0;resizeLast=0;collapsible=1;marginBottom=0;whiteSpace=wrap;html=1;" parent="1" vertex="1">
          <mxGeometry x="387" y="472" width="160" height="138" as="geometry" />
        </mxCell>
        <mxCell id="k9vIDkuSbRLhK8Y41iWG-92" value="- idTowaru = 1&lt;div&gt;- nazwa = Marchew&lt;/div&gt;&lt;div&gt;- cena = 4.5&lt;/div&gt;&lt;div&gt;- opis = &quot;Marchew 100%. Oznakowanie alergenów: wielkimi literami&quot;&lt;/div&gt;&lt;div&gt;&lt;br&gt;&lt;/div&gt;" style="text;strokeColor=none;fillColor=none;align=left;verticalAlign=top;spacingLeft=4;spacingRight=4;overflow=hidden;rotatable=0;points=[[0,0.5],[1,0.5]];portConstraint=eastwest;whiteSpace=wrap;html=1;" parent="k9vIDkuSbRLhK8Y41iWG-91" vertex="1">
          <mxGeometry y="26" width="160" height="104" as="geometry" />
        </mxCell>
        <mxCell id="k9vIDkuSbRLhK8Y41iWG-93" value="" style="line;strokeWidth=1;fillColor=none;align=left;verticalAlign=middle;spacingTop=-1;spacingLeft=3;spacingRight=3;rotatable=0;labelPosition=right;points=[];portConstraint=eastwest;strokeColor=inherit;" parent="k9vIDkuSbRLhK8Y41iWG-91" vertex="1">
          <mxGeometry y="130" width="160" height="8" as="geometry" />
        </mxCell>
        <mxCell id="k9vIDkuSbRLhK8Y41iWG-94" value="" style="endArrow=open;html=1;rounded=0;exitX=1.006;exitY=0.116;exitDx=0;exitDy=0;exitPerimeter=0;" parent="1" source="k9vIDkuSbRLhK8Y41iWG-72" edge="1">
          <mxGeometry relative="1" as="geometry">
            <mxPoint x="277" y="59" as="sourcePoint" />
            <mxPoint x="407" y="59" as="targetPoint" />
          </mxGeometry>
        </mxCell>
        <mxCell id="k9vIDkuSbRLhK8Y41iWG-95" value="1..*" style="resizable=0;html=1;whiteSpace=wrap;align=left;verticalAlign=bottom;" parent="k9vIDkuSbRLhK8Y41iWG-94" connectable="0" vertex="1">
          <mxGeometry x="-1" relative="1" as="geometry">
            <mxPoint x="14" as="offset" />
          </mxGeometry>
        </mxCell>
        <mxCell id="k9vIDkuSbRLhK8Y41iWG-96" value="1..1" style="resizable=0;html=1;whiteSpace=wrap;align=right;verticalAlign=bottom;" parent="k9vIDkuSbRLhK8Y41iWG-94" connectable="0" vertex="1">
          <mxGeometry x="1" relative="1" as="geometry">
            <mxPoint x="-10" as="offset" />
          </mxGeometry>
        </mxCell>
        <mxCell id="k9vIDkuSbRLhK8Y41iWG-97" value="" style="endArrow=none;html=1;rounded=0;exitX=0.1;exitY=0.75;exitDx=0;exitDy=0;exitPerimeter=0;entryX=0.2;entryY=-0.027;entryDx=0;entryDy=0;entryPerimeter=0;" parent="1" source="k9vIDkuSbRLhK8Y41iWG-74" target="k9vIDkuSbRLhK8Y41iWG-81" edge="1">
          <mxGeometry relative="1" as="geometry">
            <mxPoint x="117.03999999999996" y="135" as="sourcePoint" />
            <mxPoint x="254" y="179" as="targetPoint" />
          </mxGeometry>
        </mxCell>
        <mxCell id="k9vIDkuSbRLhK8Y41iWG-98" value="1..*" style="resizable=0;html=1;whiteSpace=wrap;align=left;verticalAlign=bottom;" parent="k9vIDkuSbRLhK8Y41iWG-97" connectable="0" vertex="1">
          <mxGeometry x="-1" relative="1" as="geometry">
            <mxPoint x="-30" y="24" as="offset" />
          </mxGeometry>
        </mxCell>
        <mxCell id="k9vIDkuSbRLhK8Y41iWG-99" value="1..1" style="resizable=0;html=1;whiteSpace=wrap;align=right;verticalAlign=bottom;" parent="k9vIDkuSbRLhK8Y41iWG-97" connectable="0" vertex="1">
          <mxGeometry x="1" relative="1" as="geometry">
            <mxPoint x="-10" as="offset" />
          </mxGeometry>
        </mxCell>
        <mxCell id="k9vIDkuSbRLhK8Y41iWG-100" value="" style="endArrow=open;html=1;rounded=0;exitX=0.5;exitY=1;exitDx=0;exitDy=0;entryX=0.5;entryY=0;entryDx=0;entryDy=0;" parent="1" source="k9vIDkuSbRLhK8Y41iWG-88" target="k9vIDkuSbRLhK8Y41iWG-91" edge="1">
          <mxGeometry relative="1" as="geometry">
            <mxPoint x="471.96000000000004" y="378.2339999999999" as="sourcePoint" />
            <mxPoint x="628" y="500" as="targetPoint" />
          </mxGeometry>
        </mxCell>
        <mxCell id="k9vIDkuSbRLhK8Y41iWG-101" value="0..*" style="resizable=0;html=1;whiteSpace=wrap;align=left;verticalAlign=bottom;" parent="k9vIDkuSbRLhK8Y41iWG-100" connectable="0" vertex="1">
          <mxGeometry x="-1" relative="1" as="geometry">
            <mxPoint x="9" y="18" as="offset" />
          </mxGeometry>
        </mxCell>
        <mxCell id="k9vIDkuSbRLhK8Y41iWG-102" value="1..1" style="resizable=0;html=1;whiteSpace=wrap;align=right;verticalAlign=bottom;" parent="k9vIDkuSbRLhK8Y41iWG-100" connectable="0" vertex="1">
          <mxGeometry x="1" relative="1" as="geometry">
            <mxPoint x="30" y="-13" as="offset" />
          </mxGeometry>
        </mxCell>
        <mxCell id="k9vIDkuSbRLhK8Y41iWG-103" value="" style="endArrow=block;endSize=16;endFill=0;html=1;rounded=0;exitX=0;exitY=0;exitDx=0;exitDy=0;entryX=1;entryY=1;entryDx=0;entryDy=0;" parent="1" source="k9vIDkuSbRLhK8Y41iWG-85" target="k9vIDkuSbRLhK8Y41iWG-75" edge="1">
          <mxGeometry width="160" relative="1" as="geometry">
            <mxPoint x="340" y="410" as="sourcePoint" />
            <mxPoint x="566.04" y="161.00800000000004" as="targetPoint" />
          </mxGeometry>
        </mxCell>
        <mxCell id="k9vIDkuSbRLhK8Y41iWG-104" value="" style="endArrow=block;endSize=16;endFill=0;html=1;rounded=0;exitX=-0.006;exitY=0.122;exitDx=0;exitDy=0;entryX=1.019;entryY=0.25;entryDx=0;entryDy=0;entryPerimeter=0;exitPerimeter=0;" parent="1" source="k9vIDkuSbRLhK8Y41iWG-79" target="k9vIDkuSbRLhK8Y41iWG-76" edge="1">
          <mxGeometry width="160" relative="1" as="geometry">
            <mxPoint x="677" y="299" as="sourcePoint" />
            <mxPoint x="576" y="171" as="targetPoint" />
          </mxGeometry>
        </mxCell>
        <mxCell id="k9vIDkuSbRLhK8Y41iWG-105" value="" style="endArrow=none;endFill=0;endSize=24;html=1;rounded=0;exitX=0;exitY=0;exitDx=0;exitDy=0;entryX=1;entryY=1.154;entryDx=0;entryDy=0;entryPerimeter=0;" parent="1" source="k9vIDkuSbRLhK8Y41iWG-88" target="k9vIDkuSbRLhK8Y41iWG-73" edge="1">
          <mxGeometry width="160" relative="1" as="geometry">
            <mxPoint x="310" y="410" as="sourcePoint" />
            <mxPoint x="470" y="410" as="targetPoint" />
          </mxGeometry>
        </mxCell>
        <mxCell id="k9vIDkuSbRLhK8Y41iWG-106" value="1..*" style="resizable=0;html=1;whiteSpace=wrap;align=right;verticalAlign=bottom;" parent="1" connectable="0" vertex="1">
          <mxGeometry x="407.00212891955675" y="249.9966524214077" as="geometry" />
        </mxCell>
        <mxCell id="CeMSwM2PEXt_za3ZyRSS-1" value="1..1" style="resizable=0;html=1;whiteSpace=wrap;align=right;verticalAlign=bottom;" connectable="0" vertex="1" parent="1">
          <mxGeometry x="417.00212891955675" y="259.9966524214077" as="geometry">
            <mxPoint x="-131" y="-150" as="offset" />
          </mxGeometry>
        </mxCell>
      </root>
    </mxGraphModel>
  </diagram>
</mxfile>
